<?xml version="1.0" encoding="UTF-8"?>
<svg width="20px" height="20px" viewBox="0 0 20 20" version="1.1" xmlns="http://www.w3.org/2000/svg" xmlns:xlink="http://www.w3.org/1999/xlink">
    <!-- Generator: Sketch 48.1 (47250) - http://www.bohemiancoding.com/sketch -->
    <title>Fill 91</title>
    <desc>Created with Sketch.</desc>
    <defs></defs>
    <g id="10b.-Home-Repsol_Desktop_Mapa-Web_v2" stroke="none" stroke-width="1" fill="none" fill-rule="evenodd" transform="translate(-1233.000000, -105.000000)">
        <g id="Header" fill="#000000">
            <g id="Menu-Copy" transform="translate(113.000000, 104.000000)">
                <path d="M1134.29388,13.578976 L1133.39051,13.578976 L1133.07033,13.2702193 C1134.19097,11.9665799 1134.86564,10.2741359 1134.86564,8.43303125 C1134.86564,4.32771091 1131.53802,1 1127.43282,1 C1123.32762,1 1120,4.32771091 1120,8.43303125 C1120,12.5383516 1123.32762,15.8654907 1127.43282,15.8654907 C1129.27387,15.8654907 1130.96627,15.191372 1132.26987,14.0701278 L1132.57862,14.3908917 L1132.57862,15.2942909 L1138.29617,21 L1140,19.2961205 L1134.29388,13.578976 L1134.29388,13.578976 Z M1127.43282,13.578976 C1124.58548,13.578976 1122.28702,11.280454 1122.28702,8.43303125 C1122.28702,5.58560851 1124.58548,3.28708654 1127.43282,3.28708654 C1130.28016,3.28708654 1132.57862,5.58560851 1132.57862,8.43303125 C1132.57862,11.280454 1130.28016,13.578976 1127.43282,13.578976 L1127.43282,13.578976 Z" id="Fill-91"></path>
            </g>
        </g>
    </g>
</svg>