<?xml version="1.0" encoding="utf-8"?>
<!-- Generator: Adobe Illustrator 21.1.0, SVG Export Plug-In . SVG Version: 6.00 Build 0)  -->
<svg version="1.1" id="Capa_1" xmlns="http://www.w3.org/2000/svg" xmlns:xlink="http://www.w3.org/1999/xlink" x="0px" y="0px"
	 viewBox="0 0 350.2 241.2" style="enable-background:new 0 0 350.2 241.2;" xml:space="preserve">
<style type="text/css">
	.st0{fill:url(#SVGID_1_);}
	.st1{fill:url(#SVGID_2_);}
	.st2{fill:#E52330;}
	.st3{fill:url(#SVGID_3_);}
	.st4{fill:url(#SVGID_4_);}
	.st5{fill:url(#SVGID_5_);}
	.st6{fill:url(#SVGID_6_);}
	.st7{fill:url(#SVGID_7_);}
</style>
<title>AF_REPSOL_VS_POS_CMYK</title>
<g>
	
		<linearGradient id="SVGID_1_" gradientUnits="userSpaceOnUse" x1="301.8838" y1="-355.5529" x2="304.6738" y2="-371.3528" gradientTransform="matrix(1 0 0 -1 -274.96 -232.78)">
		<stop  offset="0" style="stop-color:#D95C13"/>
		<stop  offset="0.27" style="stop-color:#E57C0E"/>
		<stop  offset="0.54" style="stop-color:#EF950A"/>
		<stop  offset="0.8" style="stop-color:#F5A408"/>
		<stop  offset="1" style="stop-color:#F7A907"/>
	</linearGradient>
	<path class="st0" d="M52.4,134.6c0.5-4.7,1.2-9.3,2.1-13.9v-0.2h-0.4c-6.9,0.7-17.8,1.5-25.9,2.5c-14.1,1.8-27,3.7-28,5
		c-2.9,3.5,16.4,6,45.9,6.4L52.4,134.6z"/>
	
		<linearGradient id="SVGID_2_" gradientUnits="userSpaceOnUse" x1="347.2706" y1="-246.9601" x2="510.0903" y2="-409.7798" gradientTransform="matrix(1 0 0 -1 -274.96 -232.78)">
		<stop  offset="0" style="stop-color:#FECD55"/>
		<stop  offset="1.000000e-02" style="stop-color:#FDCA4F"/>
		<stop  offset="0.14" style="stop-color:#F8B21E"/>
		<stop  offset="0.2" style="stop-color:#F6A80B"/>
		<stop  offset="0.49" style="stop-color:#F6A60B"/>
		<stop  offset="0.65" style="stop-color:#F49E0B"/>
		<stop  offset="0.77" style="stop-color:#F1900C"/>
		<stop  offset="0.88" style="stop-color:#EE7D0C"/>
		<stop  offset="0.97" style="stop-color:#E9640D"/>
		<stop  offset="1" style="stop-color:#E75C0D"/>
	</linearGradient>
	<path class="st1" d="M201.2,0c-46.5,0-92.3,26.3-120.6,64.8c0,0-66,4.7-69.4,10.6C0.7,95.3,0.5,128.7,0.5,128.7v-0.1
		c0.1-0.2,0.1-0.3,0.3-0.4c1.1-1.3,13.9-3.2,28-5c8.1-1,19-1.8,25.9-2.5H55l0,0c22.9-2.3,66.6-5.4,91.6-6.1
		c61.2-1.7,114-1.2,150.6,0.5C307.8,50.9,265.9,0,201.2,0z"/>
	<path class="st2" d="M275.1,169.1c-18.8-0.2-88.5-0.7-119.5,0.2l-14.8,0.5c-33.4,1.3-61.7,3.5-84.8,5.8l0,0
		c11.7,38.9,46.6,65.6,93.4,65.6C198.8,241.2,247.5,211.5,275.1,169.1L275.1,169.1z"/>
	
		<linearGradient id="SVGID_3_" gradientUnits="userSpaceOnUse" x1="337.9856" y1="-330.5686" x2="607.1485" y2="-428.536" gradientTransform="matrix(1 0 0 -1 -274.96 -232.78)">
		<stop  offset="0" style="stop-color:#A8A6A6"/>
		<stop  offset="5.000000e-02" style="stop-color:#C5C3C3"/>
		<stop  offset="0.11" style="stop-color:#DEDDDD"/>
		<stop  offset="0.16" style="stop-color:#F0F0F0"/>
		<stop  offset="0.22" style="stop-color:#FBFBFB"/>
		<stop  offset="0.29" style="stop-color:#FFFFFF"/>
		<stop  offset="0.52" style="stop-color:#FDFCFC"/>
		<stop  offset="0.65" style="stop-color:#F4F4F4"/>
		<stop  offset="0.76" style="stop-color:#E6E6E6"/>
		<stop  offset="0.86" style="stop-color:#D3D2D2"/>
		<stop  offset="0.95" style="stop-color:#BAB8B8"/>
		<stop  offset="1" style="stop-color:#A8A6A6"/>
	</linearGradient>
	<path class="st3" d="M296.8,115.4c-36.6-1.7-89.4-2.2-150.6-0.5c-25,0.7-68.7,3.8-91.6,6.1l0,0c-0.5,2.5-1.4,6.7-2,12.2
		c0,0.1,0,0.2,0,0.3c-0.2,1.9-0.4,3.8-0.5,5.6c0,0.1,0,0.2,0,0.4c-0.1,1.8-0.2,3.6-0.2,5.4c0,1.1,0,2.3,0,3.4c0,0.9,0,1.9,0,2.8
		c0.1,2,0.2,4,0.4,5.9c0,0.6,0.1,1.1,0.2,1.7c0.2,1.5,0.4,3,0.6,4.5c0.1,0.6,0.2,1.2,0.3,1.8c0.3,1.4,0.5,2.9,0.9,4.3
		c0.1,0.6,0.2,1.1,0.4,1.7c0.4,1.5,0.7,2.9,1.2,4.3c0.1,0.2,0.1,0.5,0.2,0.7c23-2.3,51.4-4.4,84.8-5.8c0.4,0,14.7-0.5,14.8-0.5
		c31-1,100.6-0.4,119.5-0.2l0,0h4.8c15.8,0.2,22.3,0.4,38.8,1.3c7.6,0.4,20.2,0.9,20.9,2.5c0,0.1,0,0,0,0.1l-0.1,0.1l0,0
		c10.4-19.3,10.6-51.2,10.6-51.2C350.7,119.6,330.8,116.9,296.8,115.4"/>
	
		<linearGradient id="SVGID_4_" gradientUnits="userSpaceOnUse" x1="440.575" y1="-474" x2="440.575" y2="-401.5558" gradientTransform="matrix(1 0 0 -1 -274.96 -232.78)">
		<stop  offset="0" style="stop-color:#89181E;stop-opacity:0.3"/>
		<stop  offset="0.5" style="stop-color:#B31829;stop-opacity:0"/>
		<stop  offset="0.56" style="stop-color:#B01828;stop-opacity:6.000000e-02"/>
		<stop  offset="0.67" style="stop-color:#AA1827;stop-opacity:0.23"/>
		<stop  offset="0.8" style="stop-color:#9E1824;stop-opacity:0.5"/>
		<stop  offset="0.95" style="stop-color:#8F181F;stop-opacity:0.87"/>
		<stop  offset="1" style="stop-color:#89181E"/>
	</linearGradient>
	<path class="st4" d="M275.1,169.1c-27.7,42.4-76.4,72.1-125.7,72.1c-22.2,0-41.8-6-57.4-16.5c-17.4-11.7-30.1-29-36-49.1l0,0
		c23-2.3,51.3-4.4,84.8-5.8l14.8-0.5C186.6,168.3,256.3,168.9,275.1,169.1L275.1,169.1z"/>
	
		<linearGradient id="SVGID_5_" gradientUnits="userSpaceOnUse" x1="373.6975" y1="-246.4014" x2="560.5045" y2="-314.3904" gradientTransform="matrix(1 0 0 -1 -274.96 -232.78)">
		<stop  offset="9.000000e-02" style="stop-color:#FECD55"/>
		<stop  offset="0.69" style="stop-color:#F6A924;stop-opacity:0.36"/>
		<stop  offset="1" style="stop-color:#F2970C;stop-opacity:5.000000e-02"/>
	</linearGradient>
	<path class="st5" d="M279,61.6c3.5,0,9.6,0,13.8,0C280,24.8,245.9,0,200.7,0c-46.4,0-92.3,26.3-120.6,64.8c20.4-1.9,47-3.4,73-3.9
		c5.1-0.1,14.9-2.2,20.4-10.3c10.2-15.1,20.2-30.5,34.5-35.6l0.7-0.3C230.5,6.5,259.2,26.7,279,61.6z"/>
	
		<linearGradient id="SVGID_6_" gradientUnits="userSpaceOnUse" x1="398.2809" y1="-481.1482" x2="491.3701" y2="-357.6159" gradientTransform="matrix(1 0 0 -1 -274.96 -232.78)">
		<stop  offset="1.000000e-02" style="stop-color:#E30335;stop-opacity:0"/>
		<stop  offset="0.13" style="stop-color:#CA0A2D;stop-opacity:0.22"/>
		<stop  offset="0.26" style="stop-color:#B21126;stop-opacity:0.43"/>
		<stop  offset="0.4" style="stop-color:#A21520;stop-opacity:0.58"/>
		<stop  offset="0.52" style="stop-color:#97181D;stop-opacity:0.67"/>
		<stop  offset="0.64" style="stop-color:#94191C;stop-opacity:0.7"/>
		<stop  offset="1" style="stop-color:#96191D"/>
	</linearGradient>
	<path class="st6" d="M275.1,169.1c-4.7,0-12.5-0.1-22-0.2c-22.2-0.1-54.6-0.2-77.6,0c-5.1,4.2-10.9,10.3-13.6,15.8
		c-18,30.3-24.2,60.1-79.7,14.7c0,0-8.9-0.8-14.8,0.3c6.1,9.3,13.9,17.3,23,23.8c0.7,0.4,1.3,0.8,1.7,1.2c1,0.7,2.1,1.4,3.1,2
		c15.1,9.2,33.5,14.5,54.2,14.5C198.8,241.2,247.4,211.5,275.1,169.1z"/>
	
		<linearGradient id="SVGID_7_" gradientUnits="userSpaceOnUse" x1="577.93" y1="-414.38" x2="577.93" y2="-402.38" gradientTransform="matrix(1 0 0 -1 -274.96 -232.78)">
		<stop  offset="1.000000e-02" style="stop-color:#D8D9D9"/>
		<stop  offset="0.19" style="stop-color:#D1D2D2"/>
		<stop  offset="0.46" style="stop-color:#BDBEBE"/>
		<stop  offset="0.79" style="stop-color:#9D9E9E"/>
		<stop  offset="1" style="stop-color:#848685"/>
	</linearGradient>
	<path class="st7" d="M339,173.3c-0.7-1.6-13-2.1-20.5-2.5c-16.2-0.9-22.6-1-38.1-1.2h-4.8l0,0c-2.7,4.1-5.6,8.1-8.7,12l0,0
		C309.7,180.3,337.8,177.3,339,173.3C339,173.3,339,173.4,339,173.3z"/>
</g>
</svg>
